<svg width="175" height="32" viewBox="0 0 175 32" fill="none" xmlns="http://www.w3.org/2000/svg">
<g filter="url(#filter0_d)">
<path d="M5.66016 14.5884C5.66016 13.8153 5.9043 13.1846 6.39258 12.6963C6.889 12.1999 7.54411 11.9517 8.35791 11.9517C9.19613 11.9517 9.85938 12.1999 10.3477 12.6963C10.8359 13.1846 11.0801 13.8275 11.0801 14.625V15.0767C11.0801 15.8416 10.8359 16.4683 10.3477 16.9565C9.86751 17.4367 9.20833 17.6768 8.37012 17.6768C7.56445 17.6768 6.91341 17.4448 6.41699 16.981C5.92871 16.509 5.67643 15.8945 5.66016 15.1377V14.5884ZM29.7373 19.6055L32.4717 6.22656H35.5356L31.4341 24H28.48L25.0986 11.0239L21.644 24H18.6777L14.5762 6.22656H17.6401L20.3989 19.5811L23.7925 6.22656H26.3804L29.7373 19.6055ZM46.2339 24C46.1037 23.7477 45.9897 23.3368 45.8921 22.7671C44.9481 23.7518 43.7925 24.2441 42.4253 24.2441C41.0988 24.2441 40.0164 23.8657 39.1782 23.1089C38.34 22.3521 37.9209 21.4162 37.9209 20.3013C37.9209 18.8934 38.4417 17.8151 39.4834 17.0664C40.5332 16.3096 42.0306 15.9312 43.9756 15.9312H45.7944V15.0645C45.7944 14.3809 45.6032 13.8356 45.2207 13.4287C44.8382 13.0137 44.2563 12.8062 43.4751 12.8062C42.7996 12.8062 42.2463 12.9771 41.8149 13.3188C41.3836 13.6525 41.168 14.0798 41.168 14.6006H38.2017C38.2017 13.8763 38.4417 13.2008 38.9219 12.5742C39.402 11.9395 40.0531 11.443 40.875 11.085C41.7051 10.7269 42.6287 10.5479 43.646 10.5479C45.1922 10.5479 46.4251 10.9385 47.3447 11.7197C48.2643 12.4928 48.7363 13.5833 48.7607 14.9912V20.9482C48.7607 22.1364 48.9276 23.0845 49.2612 23.7925V24H46.2339ZM42.9746 21.8638C43.5605 21.8638 44.1099 21.7214 44.6226 21.4365C45.1434 21.1517 45.534 20.7692 45.7944 20.2891V17.7988H44.1953C43.0967 17.7988 42.2707 17.9901 41.7173 18.3726C41.1639 18.755 40.8872 19.2962 40.8872 19.9961C40.8872 20.5658 41.0744 21.0215 41.4487 21.3633C41.8312 21.6969 42.3398 21.8638 42.9746 21.8638ZM56.8345 7.58154V10.792H59.166V12.9893H56.8345V20.3623C56.8345 20.8669 56.9321 21.2331 57.1274 21.4609C57.3309 21.6807 57.689 21.7905 58.2017 21.7905C58.5435 21.7905 58.8893 21.7498 59.2393 21.6685V23.9634C58.5638 24.1506 57.9128 24.2441 57.2861 24.2441C55.0075 24.2441 53.8682 22.9868 53.8682 20.4722V12.9893H51.6953V10.792H53.8682V7.58154H56.8345ZM68.1187 21.876C68.8592 21.876 69.4736 21.6603 69.9619 21.229C70.4502 20.7977 70.7106 20.2646 70.7432 19.6299H73.5386C73.506 20.4518 73.2497 21.2209 72.7695 21.937C72.2894 22.645 71.6383 23.2065 70.8164 23.6216C69.9945 24.0366 69.1074 24.2441 68.1553 24.2441C66.3079 24.2441 64.8431 23.646 63.7607 22.4497C62.6784 21.2534 62.1372 19.6014 62.1372 17.4937V17.1885C62.1372 15.1784 62.6743 13.5711 63.7485 12.3667C64.8228 11.1541 66.2876 10.5479 68.1431 10.5479C69.7137 10.5479 70.9914 11.0076 71.9761 11.9272C72.9689 12.8387 73.4897 14.0391 73.5386 15.5283H70.7432C70.7106 14.7715 70.4502 14.1489 69.9619 13.6606C69.4818 13.1724 68.8674 12.9282 68.1187 12.9282C67.1584 12.9282 66.4178 13.2782 65.897 13.978C65.3761 14.6698 65.1117 15.7236 65.1035 17.1396V17.6157C65.1035 19.048 65.3599 20.1182 65.8726 20.8262C66.3934 21.526 67.1421 21.876 68.1187 21.876ZM79.9521 12.2324C80.9206 11.1094 82.1453 10.5479 83.6265 10.5479C86.4422 10.5479 87.8704 12.1551 87.9111 15.3696V24H84.9448V15.4795C84.9448 14.568 84.7454 13.9251 84.3467 13.5508C83.9561 13.1683 83.3783 12.9771 82.6133 12.9771C81.4251 12.9771 80.5381 13.506 79.9521 14.564V24H76.9858V5.25H79.9521V12.2324ZM106.019 18.2139C105.84 20.11 105.14 21.5911 103.919 22.6572C102.699 23.7152 101.075 24.2441 99.0488 24.2441C97.6328 24.2441 96.3836 23.9105 95.3013 23.2432C94.2271 22.5677 93.397 21.6115 92.811 20.3745C92.2251 19.1375 91.9199 17.7012 91.8955 16.0654V14.4053C91.8955 12.7288 92.1925 11.2518 92.7866 9.97412C93.3807 8.69645 94.2311 7.71175 95.3379 7.02002C96.4528 6.32829 97.7386 5.98242 99.1953 5.98242C101.157 5.98242 102.735 6.51546 103.932 7.58154C105.128 8.64762 105.824 10.1532 106.019 12.0981H102.943C102.796 10.8205 102.422 9.90088 101.82 9.33936C101.226 8.76969 100.351 8.48486 99.1953 8.48486C97.8525 8.48486 96.819 8.97721 96.0947 9.96191C95.3786 10.9385 95.0124 12.3748 94.9961 14.271V15.8457C94.9961 17.7663 95.3379 19.2311 96.0215 20.2402C96.7132 21.2493 97.7223 21.7539 99.0488 21.7539C100.261 21.7539 101.173 21.4813 101.783 20.936C102.394 20.3908 102.78 19.4834 102.943 18.2139H106.019ZM112.909 24H109.942V5.25H112.909V24ZM116.844 17.2739C116.844 15.98 117.101 14.8162 117.613 13.7827C118.126 12.741 118.846 11.9435 119.774 11.3901C120.702 10.8286 121.768 10.5479 122.972 10.5479C124.754 10.5479 126.199 11.1216 127.306 12.269C128.421 13.4165 129.023 14.9383 129.112 16.8345L129.125 17.5303C129.125 18.8324 128.872 19.9961 128.368 21.0215C127.871 22.0469 127.155 22.8403 126.219 23.4019C125.292 23.9634 124.217 24.2441 122.997 24.2441C121.133 24.2441 119.64 23.6257 118.517 22.3887C117.402 21.1436 116.844 19.4875 116.844 17.4204V17.2739ZM119.811 17.5303C119.811 18.8893 120.091 19.9554 120.653 20.7285C121.214 21.4935 121.996 21.876 122.997 21.876C123.998 21.876 124.775 21.4854 125.328 20.7041C125.89 19.9229 126.17 18.7795 126.17 17.2739C126.17 15.9393 125.882 14.8813 125.304 14.1001C124.734 13.3188 123.957 12.9282 122.972 12.9282C122.004 12.9282 121.235 13.3148 120.665 14.0879C120.095 14.8529 119.811 16.0003 119.811 17.5303ZM138.309 21.876C139.05 21.876 139.664 21.6603 140.152 21.229C140.641 20.7977 140.901 20.2646 140.934 19.6299H143.729C143.696 20.4518 143.44 21.2209 142.96 21.937C142.48 22.645 141.829 23.2065 141.007 23.6216C140.185 24.0366 139.298 24.2441 138.346 24.2441C136.498 24.2441 135.034 23.646 133.951 22.4497C132.869 21.2534 132.328 19.6014 132.328 17.4937V17.1885C132.328 15.1784 132.865 13.5711 133.939 12.3667C135.013 11.1541 136.478 10.5479 138.333 10.5479C139.904 10.5479 141.182 11.0076 142.167 11.9272C143.159 12.8387 143.68 14.0391 143.729 15.5283H140.934C140.901 14.7715 140.641 14.1489 140.152 13.6606C139.672 13.1724 139.058 12.9282 138.309 12.9282C137.349 12.9282 136.608 13.2782 136.087 13.978C135.567 14.6698 135.302 15.7236 135.294 17.1396V17.6157C135.294 19.048 135.55 20.1182 136.063 20.8262C136.584 21.526 137.333 21.876 138.309 21.876ZM151.51 18.3359L150.191 19.6909V24H147.225V5.25H150.191V16.0654L151.119 14.9058L154.769 10.792H158.333L153.426 16.2974L158.858 24H155.428L151.51 18.3359ZM161.671 14.5884C161.671 13.8153 161.915 13.1846 162.403 12.6963C162.9 12.1999 163.555 11.9517 164.369 11.9517C165.207 11.9517 165.87 12.1999 166.358 12.6963C166.847 13.1846 167.091 13.8275 167.091 14.625V15.0767C167.091 15.8416 166.847 16.4683 166.358 16.9565C165.878 17.4367 165.219 17.6768 164.381 17.6768C163.575 17.6768 162.924 17.4448 162.428 16.981C161.939 16.509 161.687 15.8945 161.671 15.1377V14.5884Z" fill="white"/>
<path d="M6.39258 12.6963L5.68547 11.9892L6.39258 12.6963ZM10.3477 12.6963L9.63471 13.3976L9.64055 13.4034L10.3477 12.6963ZM10.3477 16.9565L9.64055 16.2494L10.3477 16.9565ZM6.41699 16.981L5.72197 17.6999L5.72806 17.7058L5.73425 17.7116L6.41699 16.981ZM5.66016 15.1377H4.66016V15.1484L4.66039 15.1592L5.66016 15.1377ZM6.66016 14.5884C6.66016 14.0458 6.82211 13.681 7.09968 13.4034L5.68547 11.9892C4.98648 12.6882 4.66016 13.5847 4.66016 14.5884H6.66016ZM7.09968 13.4034C7.37857 13.1245 7.76365 12.9517 8.35791 12.9517V10.9517C7.32457 10.9517 6.39943 11.2752 5.68547 11.9892L7.09968 13.4034ZM8.35791 12.9517C8.98661 12.9517 9.37188 13.1303 9.63473 13.3975L11.0606 11.9951C10.3469 11.2694 9.40564 10.9517 8.35791 10.9517V12.9517ZM9.64055 13.4034C9.91201 13.6749 10.0801 14.0482 10.0801 14.625H12.0801C12.0801 13.6068 11.7599 12.6943 11.0548 11.9892L9.64055 13.4034ZM10.0801 14.625V15.0767H12.0801V14.625H10.0801ZM10.0801 15.0767C10.0801 15.6078 9.92023 15.9698 9.64055 16.2494L11.0548 17.6637C11.7516 16.9668 12.0801 16.0755 12.0801 15.0767H10.0801ZM9.64055 16.2494C9.38993 16.5001 9.00906 16.6768 8.37012 16.6768V18.6768C9.4076 18.6768 10.3451 18.3733 11.0548 17.6637L9.64055 16.2494ZM8.37012 16.6768C7.76786 16.6768 7.37733 16.5097 7.09974 16.2503L5.73425 17.7116C6.44949 18.38 7.36104 18.6768 8.37012 18.6768V16.6768ZM7.11201 16.262C6.83579 15.995 6.67124 15.6425 6.65992 15.1162L4.66039 15.1592C4.68162 16.1466 5.02163 17.023 5.72197 17.6999L7.11201 16.262ZM6.66016 15.1377V14.5884H4.66016V15.1377H6.66016ZM29.7373 19.6055L28.7674 19.8488L30.7171 19.8057L29.7373 19.6055ZM32.4717 6.22656V5.22656H31.6554L31.4919 6.02632L32.4717 6.22656ZM35.5356 6.22656L36.51 6.45142L36.7927 5.22656H35.5356V6.22656ZM31.4341 24V25H32.2296L32.4085 24.2249L31.4341 24ZM28.48 24L27.5123 24.2522L27.7072 25H28.48V24ZM25.0986 11.0239L26.0663 10.7718L25.109 7.09799L24.1323 10.7667L25.0986 11.0239ZM21.644 24V25H22.4126L22.6104 24.2573L21.644 24ZM18.6777 24L17.7033 24.2249L17.8822 25H18.6777V24ZM14.5762 6.22656V5.22656H13.3191L13.6018 6.45142L14.5762 6.22656ZM17.6401 6.22656L18.6195 6.02425L18.4547 5.22656H17.6401V6.22656ZM20.3989 19.5811L19.4196 19.7834L21.3681 19.8273L20.3989 19.5811ZM23.7925 6.22656V5.22656H23.0148L22.8233 5.98028L23.7925 6.22656ZM26.3804 6.22656L27.3503 5.98319L27.1605 5.22656H26.3804V6.22656ZM30.7171 19.8057L33.4514 6.4268L31.4919 6.02632L28.7576 19.4052L30.7171 19.8057ZM32.4717 7.22656H35.5356V5.22656H32.4717V7.22656ZM34.5613 6.0017L30.4597 23.7751L32.4085 24.2249L36.51 6.45142L34.5613 6.0017ZM31.4341 23H28.48V25H31.4341V23ZM29.4477 23.7478L26.0663 10.7718L24.1309 11.2761L27.5123 24.2522L29.4477 23.7478ZM24.1323 10.7667L20.6777 23.7427L22.6104 24.2573L26.065 11.2812L24.1323 10.7667ZM21.644 23H18.6777V25H21.644V23ZM19.6521 23.7751L15.5506 6.0017L13.6018 6.45142L17.7033 24.2249L19.6521 23.7751ZM14.5762 7.22656H17.6401V5.22656H14.5762V7.22656ZM16.6608 6.42887L19.4196 19.7834L21.3782 19.3787L18.6195 6.02425L16.6608 6.42887ZM21.3681 19.8273L24.7617 6.47285L22.8233 5.98028L19.4297 19.3348L21.3681 19.8273ZM23.7925 7.22656H26.3804V5.22656H23.7925V7.22656ZM25.4104 6.46993L28.7674 19.8488L30.7072 19.3621L27.3503 5.98319L25.4104 6.46993ZM46.2339 24L45.3453 24.4586L45.6247 25H46.2339V24ZM45.8921 22.7671L46.8777 22.5981L46.5426 20.6435L45.1702 22.0751L45.8921 22.7671ZM39.1782 23.1089L38.5081 23.8511L39.1782 23.1089ZM39.4834 17.0664L40.067 17.8784L40.0682 17.8776L39.4834 17.0664ZM45.7944 15.9312V16.9312H46.7944V15.9312H45.7944ZM45.2207 13.4287L44.4853 14.1064L44.4921 14.1136L45.2207 13.4287ZM41.8149 13.3188L42.4269 14.1099L42.436 14.1026L41.8149 13.3188ZM41.168 14.6006V15.6006H42.168V14.6006H41.168ZM38.2017 14.6006H37.2017V15.6006H38.2017V14.6006ZM38.9219 12.5742L39.7157 13.1824L39.7194 13.1775L38.9219 12.5742ZM40.875 11.085L40.4789 10.1667L40.4756 10.1682L40.875 11.085ZM47.3447 11.7197L46.6973 12.4818L46.7012 12.4852L47.3447 11.7197ZM48.7607 14.9912H49.7607V14.9825L49.7606 14.9739L48.7607 14.9912ZM49.2612 23.7925H50.2612V23.5687L50.1658 23.3662L49.2612 23.7925ZM49.2612 24V25H50.2612V24H49.2612ZM44.6226 21.4365L44.1427 20.5591L44.1369 20.5624L44.6226 21.4365ZM45.7944 20.2891L46.6735 20.7658L46.7944 20.5428V20.2891H45.7944ZM45.7944 17.7988H46.7944V16.7988H45.7944V17.7988ZM41.4487 21.3633L40.7745 22.1018L40.7828 22.1094L40.7914 22.1168L41.4487 21.3633ZM47.1225 23.5414C47.0663 23.4325 46.9721 23.1488 46.8777 22.5981L44.9065 22.9361C45.0074 23.5247 45.141 24.063 45.3453 24.4586L47.1225 23.5414ZM45.1702 22.0751C44.4153 22.8625 43.5206 23.2441 42.4253 23.2441V25.2441C44.0643 25.2441 45.4809 24.6411 46.614 23.4591L45.1702 22.0751ZM42.4253 23.2441C41.3005 23.2441 40.4714 22.9292 39.8484 22.3667L38.5081 23.8511C39.5615 24.8022 40.8971 25.2441 42.4253 25.2441V23.2441ZM39.8484 22.3667C39.2171 21.7966 38.9209 21.1291 38.9209 20.3013H36.9209C36.9209 21.7033 37.463 22.9075 38.5081 23.8511L39.8484 22.3667ZM38.9209 20.3013C38.9209 19.1788 39.3151 18.4189 40.067 17.8784L38.8998 16.2544C37.5684 17.2113 36.9209 18.608 36.9209 20.3013H38.9209ZM40.0682 17.8776C40.8815 17.2912 42.1407 16.9312 43.9756 16.9312V14.9312C41.9205 14.9312 40.1849 15.3279 38.8986 16.2552L40.0682 17.8776ZM43.9756 16.9312H45.7944V14.9312H43.9756V16.9312ZM46.7944 15.9312V15.0645H44.7944V15.9312H46.7944ZM46.7944 15.0645C46.7944 14.1864 46.5434 13.3757 45.9493 12.7438L44.4921 14.1136C44.663 14.2955 44.7944 14.5753 44.7944 15.0645H46.7944ZM45.9561 12.751C45.3203 12.0612 44.4249 11.8062 43.4751 11.8062V13.8062C44.0878 13.8062 44.3561 13.9662 44.4853 14.1064L45.9561 12.751ZM43.4751 11.8062C42.6269 11.8062 41.8392 12.0237 41.1939 12.5351L42.436 14.1026C42.6533 13.9304 42.9724 13.8062 43.4751 13.8062V11.8062ZM41.2031 12.5279C40.5403 13.0406 40.168 13.7537 40.168 14.6006H42.168C42.168 14.4058 42.2269 14.2644 42.4268 14.1098L41.2031 12.5279ZM41.168 13.6006H38.2017V15.6006H41.168V13.6006ZM39.2017 14.6006C39.2017 14.1163 39.3565 13.6512 39.7156 13.1824L38.1281 11.966C37.527 12.7505 37.2017 13.6363 37.2017 14.6006H39.2017ZM39.7194 13.1775C40.0834 12.6963 40.5896 12.3001 41.2744 12.0017L40.4756 10.1682C39.5165 10.586 38.7206 11.1826 38.1243 11.971L39.7194 13.1775ZM41.2711 12.0032C41.9613 11.7054 42.7479 11.5479 43.646 11.5479V9.54785C42.5096 9.54785 41.4488 9.74835 40.4789 10.1667L41.2711 12.0032ZM43.646 11.5479C45.0233 11.5479 46.0044 11.8932 46.6973 12.4818L47.9922 10.9576C46.8458 9.98372 45.3611 9.54785 43.646 9.54785V11.5479ZM46.7012 12.4852C47.3606 13.0395 47.7405 13.835 47.7609 15.0085L49.7606 14.9739C49.7321 13.3317 49.168 11.9461 47.9882 10.9543L46.7012 12.4852ZM47.7607 14.9912V20.9482H49.7607V14.9912H47.7607ZM47.7607 20.9482C47.7607 22.2145 47.9361 23.3264 48.3566 24.2188L50.1658 23.3662C49.919 22.8425 49.7607 22.0583 49.7607 20.9482H47.7607ZM48.2612 23.7925V24H50.2612V23.7925H48.2612ZM49.2612 23H46.2339V25H49.2612V23ZM42.9746 22.8638C43.7307 22.8638 44.4471 22.678 45.1082 22.3107L44.1369 20.5624C43.7726 20.7647 43.3904 20.8638 42.9746 20.8638V22.8638ZM45.1024 22.3139C45.7768 21.9451 46.3133 21.4298 46.6735 20.7658L44.9154 19.8123C44.7547 20.1086 44.51 20.3583 44.1427 20.5592L45.1024 22.3139ZM46.7944 20.2891V17.7988H44.7944V20.2891H46.7944ZM45.7944 16.7988H44.1953V18.7988H45.7944V16.7988ZM44.1953 16.7988C43.0106 16.7988 41.9448 16.9997 41.1487 17.5499L42.2859 19.1952C42.5965 18.9805 43.1828 18.7988 44.1953 18.7988V16.7988ZM41.1487 17.5499C40.3124 18.1279 39.8872 18.9836 39.8872 19.9961H41.8872C41.8872 19.6089 42.0154 19.3821 42.2859 19.1952L41.1487 17.5499ZM39.8872 19.9961C39.8872 20.8082 40.1658 21.546 40.7745 22.1018L42.123 20.6248C41.983 20.497 41.8872 20.3233 41.8872 19.9961H39.8872ZM40.7914 22.1168C41.3983 22.6463 42.1608 22.8638 42.9746 22.8638V20.8638C42.5189 20.8638 42.2642 20.7476 42.1061 20.6097L40.7914 22.1168ZM56.8345 7.58154H57.8345V6.58154H56.8345V7.58154ZM56.8345 10.792H55.8345V11.792H56.8345V10.792ZM59.166 10.792H60.166V9.79199H59.166V10.792ZM59.166 12.9893V13.9893H60.166V12.9893H59.166ZM56.8345 12.9893V11.9893H55.8345V12.9893H56.8345ZM57.1274 21.4609L56.3682 22.1117L56.3807 22.1263L56.3937 22.1403L57.1274 21.4609ZM59.2393 21.6685H60.2393V20.4092L59.0127 20.6944L59.2393 21.6685ZM59.2393 23.9634L59.5063 24.9271L60.2393 24.724V23.9634H59.2393ZM53.8682 12.9893H54.8682V11.9893H53.8682V12.9893ZM51.6953 12.9893H50.6953V13.9893H51.6953V12.9893ZM51.6953 10.792V9.79199H50.6953V10.792H51.6953ZM53.8682 10.792V11.792H54.8682V10.792H53.8682ZM53.8682 7.58154V6.58154H52.8682V7.58154H53.8682ZM55.8345 7.58154V10.792H57.8345V7.58154H55.8345ZM56.8345 11.792H59.166V9.79199H56.8345V11.792ZM58.166 10.792V12.9893H60.166V10.792H58.166ZM59.166 11.9893H56.8345V13.9893H59.166V11.9893ZM55.8345 12.9893V20.3623H57.8345V12.9893H55.8345ZM55.8345 20.3623C55.8345 20.9557 55.9419 21.6144 56.3682 22.1117L57.8867 20.8101C57.9088 20.836 57.894 20.8329 57.874 20.7577C57.8535 20.6811 57.8345 20.5544 57.8345 20.3623H55.8345ZM56.3937 22.1403C56.8843 22.6702 57.5979 22.7905 58.2017 22.7905V20.7905C58.0108 20.7905 57.8982 20.7694 57.8419 20.7521C57.7897 20.7361 57.8165 20.7333 57.8612 20.7815L56.3937 22.1403ZM58.2017 22.7905C58.6235 22.7905 59.0454 22.7402 59.4658 22.6425L59.0127 20.6944C58.7333 20.7594 58.4634 20.7905 58.2017 20.7905V22.7905ZM58.2393 21.6685V23.9634H60.2393V21.6685H58.2393ZM58.9722 22.9997C58.3736 23.1656 57.8126 23.2441 57.2861 23.2441V25.2441C58.013 25.2441 58.754 25.1355 59.5063 24.9271L58.9722 22.9997ZM57.2861 23.2441C56.3278 23.2441 55.785 22.9843 55.4637 22.6297C55.1254 22.2564 54.8682 21.5984 54.8682 20.4722H52.8682C52.8682 21.8606 53.1806 23.0886 53.9816 23.9726C54.7996 24.8754 55.9659 25.2441 57.2861 25.2441V23.2441ZM54.8682 20.4722V12.9893H52.8682V20.4722H54.8682ZM53.8682 11.9893H51.6953V13.9893H53.8682V11.9893ZM52.6953 12.9893V10.792H50.6953V12.9893H52.6953ZM51.6953 11.792H53.8682V9.79199H51.6953V11.792ZM54.8682 10.792V7.58154H52.8682V10.792H54.8682ZM53.8682 8.58154H56.8345V6.58154H53.8682V8.58154ZM69.9619 21.229L69.2999 20.4795L69.9619 21.229ZM70.7432 19.6299V18.6299H69.7931L69.7445 19.5787L70.7432 19.6299ZM73.5386 19.6299L74.5378 19.6695L74.579 18.6299H73.5386V19.6299ZM72.7695 21.937L73.5972 22.4983L73.6001 22.4939L72.7695 21.937ZM63.7607 22.4497L63.0192 23.1206L63.7607 22.4497ZM63.7485 12.3667L64.4948 13.0323L64.4971 13.0298L63.7485 12.3667ZM71.9761 11.9272L71.2935 12.6581L71.2998 12.6639L71.9761 11.9272ZM73.5386 15.5283V16.5283H74.5719L74.538 15.4956L73.5386 15.5283ZM70.7432 15.5283L69.7441 15.5713L69.7852 16.5283H70.7432V15.5283ZM69.9619 13.6606L69.2489 14.3618L69.2548 14.3678L69.9619 13.6606ZM65.897 13.978L66.6959 14.5795L66.6992 14.575L65.897 13.978ZM65.1035 17.1396L64.1035 17.1339V17.1396H65.1035ZM65.8726 20.8262L65.0625 21.4127L65.0703 21.4232L65.8726 20.8262ZM68.1187 22.876C69.0674 22.876 69.9279 22.5933 70.6239 21.9785L69.2999 20.4795C69.0194 20.7273 68.651 20.876 68.1187 20.876V22.876ZM70.6239 21.9785C71.3081 21.3741 71.6951 20.5919 71.7419 19.6811L69.7445 19.5787C69.7261 19.9374 69.5923 20.2212 69.2999 20.4795L70.6239 21.9785ZM70.7432 20.6299H73.5386V18.6299H70.7432V20.6299ZM72.5394 19.5903C72.5145 20.2184 72.3213 20.8098 71.9389 21.3801L73.6001 22.4939C74.178 21.6319 74.4976 20.6852 74.5378 19.6695L72.5394 19.5903ZM71.9419 21.3757C71.5644 21.9324 71.0478 22.3845 70.3657 22.7289L71.2672 24.5142C72.2289 24.0286 73.0144 23.3577 73.5972 22.4983L71.9419 21.3757ZM70.3657 22.7289C69.6883 23.0709 68.9564 23.2441 68.1553 23.2441V25.2441C69.2585 25.2441 70.3006 25.0023 71.2672 24.5142L70.3657 22.7289ZM68.1553 23.2441C66.5453 23.2441 65.3667 22.7342 64.5023 21.7788L63.0192 23.1206C64.3195 24.5578 66.0706 25.2441 68.1553 25.2441V23.2441ZM64.5023 21.7788C63.632 20.8169 63.1372 19.4314 63.1372 17.4937H61.1372C61.1372 19.7714 61.7247 21.6899 63.0192 23.1206L64.5023 21.7788ZM63.1372 17.4937V17.1885H61.1372V17.4937H63.1372ZM63.1372 17.1885C63.1372 15.3612 63.6214 14.0116 64.4948 13.0323L63.0022 11.7011C61.7272 13.1306 61.1372 14.9956 61.1372 17.1885H63.1372ZM64.4971 13.0298C65.3529 12.0637 66.5277 11.5479 68.1431 11.5479V9.54785C66.0475 9.54785 64.2926 10.2445 63 11.7036L64.4971 13.0298ZM68.1431 11.5479C69.5052 11.5479 70.5244 11.9398 71.2935 12.6581L72.6586 11.1964C71.4583 10.0755 69.9222 9.54785 68.1431 9.54785V11.5479ZM71.2998 12.6639C72.0729 13.3736 72.4981 14.3092 72.5391 15.5611L74.538 15.4956C74.4814 13.769 73.865 12.3038 72.6523 11.1906L71.2998 12.6639ZM73.5386 14.5283H70.7432V16.5283H73.5386V14.5283ZM71.7422 15.4853C71.7001 14.5047 71.3521 13.6366 70.669 12.9535L69.2548 14.3678C69.5483 14.6612 69.7212 15.0382 69.7441 15.5713L71.7422 15.4853ZM70.6749 12.9595C69.9883 12.2612 69.1079 11.9282 68.1187 11.9282V13.9282C68.6268 13.9282 68.9753 14.0835 69.2489 14.3618L70.6749 12.9595ZM68.1187 11.9282C66.8791 11.9282 65.8252 12.3994 65.0947 13.381L66.6992 14.575C67.0104 14.1569 67.4376 13.9282 68.1187 13.9282V11.9282ZM65.0981 13.3765C64.3888 14.3186 64.1122 15.6281 64.1035 17.1339L66.1035 17.1454C66.1111 15.8192 66.3635 15.0209 66.6958 14.5795L65.0981 13.3765ZM64.1035 17.1396V17.6157H66.1035V17.1396H64.1035ZM64.1035 17.6157C64.1035 19.1358 64.3699 20.456 65.0626 21.4127L66.6825 20.2397C66.3498 19.7803 66.1035 18.9602 66.1035 17.6157H64.1035ZM65.0703 21.4232C65.8043 22.4095 66.8694 22.876 68.1187 22.876V20.876C67.4148 20.876 66.9824 20.6426 66.6748 20.2292L65.0703 21.4232ZM79.9521 12.2324H78.9521V14.9234L80.7095 12.8855L79.9521 12.2324ZM87.9111 15.3696H88.9112L88.9111 15.357L87.9111 15.3696ZM87.9111 24V25H88.9111V24H87.9111ZM84.9448 24H83.9448V25H84.9448V24ZM84.3467 13.5508L83.6471 14.2653L83.6546 14.2727L83.6622 14.2799L84.3467 13.5508ZM79.9521 14.564L79.0774 14.0795L78.9521 14.3055V14.564H79.9521ZM79.9521 24V25H80.9521V24H79.9521ZM76.9858 24H75.9858V25H76.9858V24ZM76.9858 5.25V4.25H75.9858V5.25H76.9858ZM79.9521 5.25H80.9521V4.25H79.9521V5.25ZM80.7095 12.8855C81.4882 11.9824 82.4366 11.5479 83.6265 11.5479V9.54785C81.854 9.54785 80.353 10.2363 79.1948 11.5794L80.7095 12.8855ZM83.6265 11.5479C84.8424 11.5479 85.592 11.8887 86.0619 12.4175C86.5535 12.9707 86.8924 13.9001 86.9112 15.3823L88.9111 15.357C88.8891 13.6246 88.4937 12.1432 87.557 11.089C86.5986 10.0106 85.2263 9.54785 83.6265 9.54785V11.5479ZM86.9111 15.3696V24H88.9111V15.3696H86.9111ZM87.9111 23H84.9448V25H87.9111V23ZM85.9448 24V15.4795H83.9448V24H85.9448ZM85.9448 15.4795C85.9448 14.4676 85.731 13.4787 85.0311 12.8217L83.6622 14.2799C83.7599 14.3716 83.9448 14.6685 83.9448 15.4795H85.9448ZM85.0463 12.8363C84.4049 12.2082 83.5342 11.9771 82.6133 11.9771V13.9771C83.2224 13.9771 83.5072 14.1284 83.6471 14.2653L85.0463 12.8363ZM82.6133 11.9771C81.8665 11.9771 81.1652 12.1449 80.5447 12.5149C79.9251 12.8844 79.4412 13.4225 79.0774 14.0795L80.8269 15.0485C81.049 14.6475 81.3016 14.3922 81.5691 14.2327C81.8356 14.0737 82.172 13.9771 82.6133 13.9771V11.9771ZM78.9521 14.564V24H80.9521V14.564H78.9521ZM79.9521 23H76.9858V25H79.9521V23ZM77.9858 24V5.25H75.9858V24H77.9858ZM76.9858 6.25H79.9521V4.25H76.9858V6.25ZM78.9521 5.25V12.2324H80.9521V5.25H78.9521ZM106.019 18.2139L107.015 18.3079L107.118 17.2139H106.019V18.2139ZM103.919 22.6572L104.574 23.4129L104.577 23.4104L103.919 22.6572ZM95.3013 23.2432L94.7689 24.0898L94.7765 24.0944L95.3013 23.2432ZM91.8955 16.0654H90.8955V16.0729L90.8956 16.0804L91.8955 16.0654ZM95.3379 7.02002L94.8107 6.17028L94.8079 6.17202L95.3379 7.02002ZM103.932 7.58154L104.597 6.83497L103.932 7.58154ZM106.019 12.0981V13.0981H107.124L107.014 11.9982L106.019 12.0981ZM102.943 12.0981L101.949 12.212L102.051 13.0981H102.943V12.0981ZM101.82 9.33936L101.128 10.0612L101.138 10.0707L101.82 9.33936ZM96.0947 9.96191L95.2892 9.3694L95.2883 9.37055L96.0947 9.96191ZM94.9961 14.271L93.9961 14.2624V14.271H94.9961ZM96.0215 20.2402L95.1936 20.8011L95.1967 20.8056L96.0215 20.2402ZM102.943 18.2139V17.2139H102.063L101.951 18.0867L102.943 18.2139ZM105.023 18.1199C104.864 19.8089 104.256 21.0354 103.262 21.904L104.577 23.4104C106.024 22.1469 106.816 20.4112 107.015 18.3079L105.023 18.1199ZM103.265 21.9015C102.268 22.7649 100.898 23.2441 99.0488 23.2441V25.2441C101.253 25.2441 103.129 24.6654 104.574 23.4129L103.265 21.9015ZM99.0488 23.2441C97.7965 23.2441 96.7332 22.9512 95.8261 22.3919L94.7765 24.0944C96.0341 24.8698 97.4692 25.2441 99.0488 25.2441V23.2441ZM95.8336 22.3966C94.9332 21.8305 94.2259 21.0255 93.7148 19.9464L91.9073 20.8026C92.568 22.1975 93.5209 23.305 94.769 24.0897L95.8336 22.3966ZM93.7148 19.9464C93.2008 18.8614 92.9181 17.5707 92.8954 16.0505L90.8956 16.0804C90.9218 17.8316 91.2494 19.4136 91.9073 20.8026L93.7148 19.9464ZM92.8955 16.0654V14.4053H90.8955V16.0654H92.8955ZM92.8955 14.4053C92.8955 12.8472 93.1713 11.5186 93.6934 10.3957L91.8799 9.5525C91.2138 10.9849 90.8955 12.6105 90.8955 14.4053H92.8955ZM93.6934 10.3957C94.2126 9.27909 94.9385 8.4489 95.8679 7.86802L94.8079 6.17202C93.5238 6.97461 92.5488 8.11382 91.8799 9.5525L93.6934 10.3957ZM95.8651 7.86976C96.8046 7.28684 97.9037 6.98242 99.1953 6.98242V4.98242C97.5735 4.98242 96.101 5.36973 94.8107 6.17028L95.8651 7.86976ZM99.1953 6.98242C100.969 6.98242 102.292 7.45982 103.266 8.32811L104.597 6.83497C103.179 5.5711 101.344 4.98242 99.1953 4.98242V6.98242ZM103.266 8.32811C104.236 9.19265 104.848 10.4447 105.024 12.1981L107.014 11.9982C106.799 9.86162 106.019 8.10259 104.597 6.83497L103.266 8.32811ZM106.019 11.0981H102.943V13.0981H106.019V11.0981ZM103.936 11.9842C103.777 10.5964 103.353 9.40125 102.502 8.60797L101.138 10.0707C101.492 10.4005 101.816 11.0445 101.949 12.212L103.936 11.9842ZM102.512 8.61757C101.668 7.80796 100.504 7.48486 99.1953 7.48486V9.48486C100.198 9.48486 100.784 9.73142 101.128 10.0611L102.512 8.61757ZM99.1953 7.48486C97.5708 7.48486 96.2224 8.1006 95.2892 9.3694L96.9003 10.5544C97.4156 9.85383 98.1343 9.48486 99.1953 9.48486V7.48486ZM95.2883 9.37055C94.3958 10.5876 94.0133 12.2669 93.9961 14.2624L95.9961 14.2796C96.0115 12.4828 96.3614 11.2893 96.9011 10.5533L95.2883 9.37055ZM93.9961 14.271V15.8457H95.9961V14.271H93.9961ZM93.9961 15.8457C93.9961 17.8601 94.3503 19.5562 95.1936 20.8011L96.8494 19.6794C96.3255 18.906 95.9961 17.6724 95.9961 15.8457H93.9961ZM95.1967 20.8056C96.0926 22.1127 97.4253 22.7539 99.0488 22.7539V20.7539C98.0194 20.7539 97.3338 20.386 96.8463 19.6748L95.1967 20.8056ZM99.0488 22.7539C100.392 22.7539 101.585 22.4542 102.449 21.6818L101.117 20.1903C100.761 20.5084 100.131 20.7539 99.0488 20.7539V22.7539ZM102.449 21.6818C103.316 20.9072 103.758 19.7211 103.935 18.341L101.951 18.0867C101.802 19.2457 101.471 19.8743 101.117 20.1903L102.449 21.6818ZM102.943 19.2139H106.019V17.2139H102.943V19.2139ZM112.909 24V25H113.909V24H112.909ZM109.942 24H108.942V25H109.942V24ZM109.942 5.25V4.25H108.942V5.25H109.942ZM112.909 5.25H113.909V4.25H112.909V5.25ZM112.909 23H109.942V25H112.909V23ZM110.942 24V5.25H108.942V24H110.942ZM109.942 6.25H112.909V4.25H109.942V6.25ZM111.909 5.25V24H113.909V5.25H111.909ZM117.613 13.7827L118.509 14.2271L118.51 14.2243L117.613 13.7827ZM119.774 11.3901L120.286 12.249L120.292 12.2456L119.774 11.3901ZM127.306 12.269L126.586 12.9633L126.588 12.9659L127.306 12.269ZM129.112 16.8345L130.112 16.8169L130.112 16.8021L130.111 16.7873L129.112 16.8345ZM129.125 17.5303H130.125V17.5215L130.124 17.5127L129.125 17.5303ZM128.368 21.0215L127.47 20.58L127.468 20.5857L128.368 21.0215ZM126.219 23.4019L125.705 22.5444L125.701 22.5464L126.219 23.4019ZM118.517 22.3887L117.772 23.0558L117.776 23.0609L118.517 22.3887ZM120.653 20.7285L119.844 21.3162L119.847 21.3203L120.653 20.7285ZM125.328 20.7041L124.516 20.1205L124.512 20.1261L125.328 20.7041ZM125.304 14.1001L124.496 14.6893L124.5 14.6947L125.304 14.1001ZM120.665 14.0879L121.467 14.6852L121.47 14.6811L120.665 14.0879ZM117.844 17.2739C117.844 16.1152 118.073 15.1065 118.509 14.2271L116.717 13.3383C116.128 14.526 115.844 15.8447 115.844 17.2739H117.844ZM118.51 14.2243C118.945 13.3424 119.537 12.6959 120.286 12.249L119.262 10.5313C118.155 11.1911 117.307 12.1397 116.716 13.3411L118.51 14.2243ZM120.292 12.2456C121.046 11.7889 121.93 11.5479 122.972 11.5479V9.54785C121.606 9.54785 120.357 9.86838 119.256 10.5346L120.292 12.2456ZM122.972 11.5479C124.518 11.5479 125.691 12.0352 126.586 12.9633L128.025 11.5748C126.707 10.208 124.991 9.54785 122.972 9.54785V11.5479ZM126.588 12.9659C127.503 13.9068 128.033 15.1812 128.113 16.8816L130.111 16.7873C130.012 14.6954 129.338 12.9262 128.023 11.5722L126.588 12.9659ZM128.112 16.852L128.125 17.5478L130.124 17.5127L130.112 16.8169L128.112 16.852ZM128.125 17.5303C128.125 18.7007 127.899 19.71 127.47 20.58L129.265 21.463C129.846 20.2822 130.125 18.964 130.125 17.5303H128.125ZM127.468 20.5857C127.052 21.4441 126.466 22.0875 125.705 22.5444L126.734 24.2593C127.844 23.5932 128.69 22.6496 129.268 21.4572L127.468 20.5857ZM125.701 22.5464C124.949 23.0019 124.058 23.2441 122.997 23.2441V25.2441C124.376 25.2441 125.634 24.9249 126.737 24.2574L125.701 22.5464ZM122.997 23.2441C121.379 23.2441 120.167 22.7193 119.257 21.7165L117.776 23.0609C119.112 24.532 120.887 25.2441 122.997 25.2441V23.2441ZM119.262 21.7216C118.347 20.7006 117.844 19.3021 117.844 17.4204H115.844C115.844 19.6729 116.456 21.5865 117.772 23.0558L119.262 21.7216ZM117.844 17.4204V17.2739H115.844V17.4204H117.844ZM118.811 17.5303C118.811 19.0143 119.116 20.3137 119.844 21.3162L121.462 20.1409C121.067 19.5971 120.811 18.7644 120.811 17.5303H118.811ZM119.847 21.3203C120.608 22.3579 121.698 22.876 122.997 22.876V20.876C122.294 20.876 121.82 20.629 121.459 20.1368L119.847 21.3203ZM122.997 22.876C124.304 22.876 125.393 22.342 126.144 21.2821L124.512 20.1261C124.156 20.6287 123.691 20.876 122.997 20.876V22.876ZM126.14 21.2877C126.875 20.2648 127.17 18.8789 127.17 17.2739H125.17C125.17 18.68 124.904 19.5809 124.516 20.1205L126.14 21.2877ZM127.17 17.2739C127.17 15.8037 126.853 14.5127 126.108 13.5055L124.5 14.6947C124.91 15.25 125.17 16.0749 125.17 17.2739H127.17ZM126.112 13.5109C125.35 12.4659 124.269 11.9282 122.972 11.9282V13.9282C123.644 13.9282 124.118 14.1718 124.496 14.6893L126.112 13.5109ZM122.972 11.9282C121.689 11.9282 120.62 12.4632 119.86 13.4947L121.47 14.6811C121.849 14.1663 122.318 13.9282 122.972 13.9282V11.9282ZM119.863 13.4906C119.108 14.5046 118.811 15.9053 118.811 17.5303H120.811C120.811 16.0954 121.083 15.2012 121.467 14.6852L119.863 13.4906ZM140.152 21.229L139.49 20.4795L140.152 21.229ZM140.934 19.6299V18.6299H139.984L139.935 19.5787L140.934 19.6299ZM143.729 19.6299L144.728 19.6695L144.769 18.6299H143.729V19.6299ZM142.96 21.937L143.788 22.4983L143.791 22.4939L142.96 21.937ZM133.951 22.4497L133.21 23.1206L133.951 22.4497ZM133.939 12.3667L134.685 13.0323L134.687 13.0298L133.939 12.3667ZM142.167 11.9272L141.484 12.6581L141.49 12.6639L142.167 11.9272ZM143.729 15.5283V16.5283H144.762L144.728 15.4956L143.729 15.5283ZM140.934 15.5283L139.935 15.5713L139.976 16.5283H140.934V15.5283ZM140.152 13.6606L139.439 14.3618L139.445 14.3678L140.152 13.6606ZM136.087 13.978L136.886 14.5795L136.89 14.575L136.087 13.978ZM135.294 17.1396L134.294 17.1339V17.1396H135.294ZM136.063 20.8262L135.253 21.4127L135.261 21.4232L136.063 20.8262ZM138.309 22.876C139.258 22.876 140.118 22.5933 140.814 21.9785L139.49 20.4795C139.21 20.7273 138.841 20.876 138.309 20.876V22.876ZM140.814 21.9785C141.499 21.3741 141.886 20.5919 141.932 19.6811L139.935 19.5787C139.917 19.9374 139.783 20.2212 139.49 20.4795L140.814 21.9785ZM140.934 20.6299H143.729V18.6299H140.934V20.6299ZM142.73 19.5903C142.705 20.2184 142.512 20.8098 142.129 21.3801L143.791 22.4939C144.368 21.6319 144.688 20.6852 144.728 19.6695L142.73 19.5903ZM142.132 21.3757C141.755 21.9324 141.238 22.3845 140.556 22.7289L141.458 24.5142C142.419 24.0286 143.205 23.3577 143.788 22.4983L142.132 21.3757ZM140.556 22.7289C139.879 23.0709 139.147 23.2441 138.346 23.2441V25.2441C139.449 25.2441 140.491 25.0023 141.458 24.5142L140.556 22.7289ZM138.346 23.2441C136.736 23.2441 135.557 22.7342 134.693 21.7788L133.21 23.1206C134.51 24.5578 136.261 25.2441 138.346 25.2441V23.2441ZM134.693 21.7788C133.822 20.8169 133.328 19.4314 133.328 17.4937H131.328C131.328 19.7714 131.915 21.6899 133.21 23.1206L134.693 21.7788ZM133.328 17.4937V17.1885H131.328V17.4937H133.328ZM133.328 17.1885C133.328 15.3612 133.812 14.0116 134.685 13.0323L133.193 11.7011C131.918 13.1306 131.328 14.9956 131.328 17.1885H133.328ZM134.687 13.0298C135.543 12.0637 136.718 11.5479 138.333 11.5479V9.54785C136.238 9.54785 134.483 10.2445 133.19 11.7036L134.687 13.0298ZM138.333 11.5479C139.696 11.5479 140.715 11.9398 141.484 12.6581L142.849 11.1964C141.649 10.0755 140.113 9.54785 138.333 9.54785V11.5479ZM141.49 12.6639C142.263 13.3736 142.688 14.3092 142.73 15.5611L144.728 15.4956C144.672 13.769 144.055 12.3038 142.843 11.1906L141.49 12.6639ZM143.729 14.5283H140.934V16.5283H143.729V14.5283ZM141.933 15.4853C141.89 14.5047 141.543 13.6366 140.859 12.9535L139.445 14.3678C139.739 14.6612 139.912 15.0382 139.935 15.5713L141.933 15.4853ZM140.865 12.9595C140.179 12.2612 139.298 11.9282 138.309 11.9282V13.9282C138.817 13.9282 139.166 14.0835 139.439 14.3618L140.865 12.9595ZM138.309 11.9282C137.07 11.9282 136.016 12.3994 135.285 13.381L136.89 14.575C137.201 14.1569 137.628 13.9282 138.309 13.9282V11.9282ZM135.289 13.3765C134.579 14.3186 134.303 15.6281 134.294 17.1339L136.294 17.1454C136.302 15.8192 136.554 15.0209 136.886 14.5795L135.289 13.3765ZM134.294 17.1396V17.6157H136.294V17.1396H134.294ZM134.294 17.6157C134.294 19.1358 134.56 20.456 135.253 21.4127L136.873 20.2397C136.54 19.7803 136.294 18.9602 136.294 17.6157H134.294ZM135.261 21.4232C135.995 22.4095 137.06 22.876 138.309 22.876V20.876C137.605 20.876 137.173 20.6426 136.865 20.2292L135.261 21.4232ZM151.51 18.3359L152.332 17.767L151.641 16.7674L150.793 17.6386L151.51 18.3359ZM150.191 19.6909L149.475 18.9936L149.191 19.2847V19.6909H150.191ZM150.191 24V25H151.191V24H150.191ZM147.225 24H146.225V25H147.225V24ZM147.225 5.25V4.25H146.225V5.25H147.225ZM150.191 5.25H151.191V4.25H150.191V5.25ZM150.191 16.0654H149.191V18.9162L150.972 16.6901L150.191 16.0654ZM151.119 14.9058L150.371 14.2421L150.354 14.2612L150.338 14.2811L151.119 14.9058ZM154.769 10.792V9.79199H154.319L154.021 10.1283L154.769 10.792ZM158.333 10.792L159.08 11.4574L160.564 9.79199H158.333V10.792ZM153.426 16.2974L152.68 15.632L152.151 16.2248L152.609 16.8737L153.426 16.2974ZM158.858 24V25H160.787L159.676 23.4237L158.858 24ZM155.428 24L154.606 24.5689L154.904 25H155.428V24ZM150.793 17.6386L149.475 18.9936L150.908 20.3883L152.226 19.0333L150.793 17.6386ZM149.191 19.6909V24H151.191V19.6909H149.191ZM150.191 23H147.225V25H150.191V23ZM148.225 24V5.25H146.225V24H148.225ZM147.225 6.25H150.191V4.25H147.225V6.25ZM149.191 5.25V16.0654H151.191V5.25H149.191ZM150.972 16.6901L151.9 15.5305L150.338 14.2811L149.411 15.4407L150.972 16.6901ZM151.867 15.5694L155.517 11.4557L154.021 10.1283L150.371 14.2421L151.867 15.5694ZM154.769 11.792H158.333V9.79199H154.769V11.792ZM157.587 10.1266L152.68 15.632L154.173 16.9628L159.08 11.4574L157.587 10.1266ZM152.609 16.8737L158.041 24.5763L159.676 23.4237L154.243 15.721L152.609 16.8737ZM158.858 23H155.428V25H158.858V23ZM156.251 23.4311L152.332 17.767L150.687 18.9049L154.606 24.5689L156.251 23.4311ZM162.403 12.6963L161.696 11.9892L162.403 12.6963ZM166.358 12.6963L165.645 13.3976L165.651 13.4034L166.358 12.6963ZM166.358 16.9565L165.651 16.2494L166.358 16.9565ZM162.428 16.981L161.733 17.6999L161.739 17.7058L161.745 17.7116L162.428 16.981ZM161.671 15.1377H160.671V15.1484L160.671 15.1592L161.671 15.1377ZM162.671 14.5884C162.671 14.0458 162.833 13.681 163.11 13.4034L161.696 11.9892C160.997 12.6882 160.671 13.5847 160.671 14.5884H162.671ZM163.11 13.4034C163.389 13.1245 163.774 12.9517 164.369 12.9517V10.9517C163.335 10.9517 162.41 11.2752 161.696 11.9892L163.11 13.4034ZM164.369 12.9517C164.997 12.9517 165.383 13.1303 165.645 13.3975L167.071 11.9951C166.358 11.2694 165.416 10.9517 164.369 10.9517V12.9517ZM165.651 13.4034C165.923 13.6749 166.091 14.0482 166.091 14.625H168.091C168.091 13.6068 167.771 12.6943 167.066 11.9892L165.651 13.4034ZM166.091 14.625V15.0767H168.091V14.625H166.091ZM166.091 15.0767C166.091 15.6078 165.931 15.9698 165.651 16.2494L167.066 17.6637C167.762 16.9668 168.091 16.0755 168.091 15.0767H166.091ZM165.651 16.2494C165.401 16.5001 165.02 16.6768 164.381 16.6768V18.6768C165.418 18.6768 166.356 18.3733 167.066 17.6637L165.651 16.2494ZM164.381 16.6768C163.779 16.6768 163.388 16.5097 163.11 16.2503L161.745 17.7116C162.46 18.38 163.372 18.6768 164.381 18.6768V16.6768ZM163.123 16.262C162.847 15.995 162.682 15.6425 162.671 15.1162L160.671 15.1592C160.692 16.1466 161.032 17.023 161.733 17.6999L163.123 16.262ZM162.671 15.1377V14.5884H160.671V15.1377H162.671Z" fill="#2F2F2F" fill-opacity="0.25"/>
</g>
<defs>
<filter id="filter0_d" x="0.660156" y="0.25" width="173.431" height="30.9941" filterUnits="userSpaceOnUse" color-interpolation-filters="sRGB">
<feFlood flood-opacity="0" result="BackgroundImageFix"/>
<feColorMatrix in="SourceAlpha" type="matrix" values="0 0 0 0 0 0 0 0 0 0 0 0 0 0 0 0 0 0 127 0"/>
<feOffset dx="1" dy="1"/>
<feGaussianBlur stdDeviation="2.5"/>
<feColorMatrix type="matrix" values="0 0 0 0 1 0 0 0 0 1 0 0 0 0 1 0 0 0 0.3 0"/>
<feBlend mode="normal" in2="BackgroundImageFix" result="effect1_dropShadow"/>
<feBlend mode="normal" in="SourceGraphic" in2="effect1_dropShadow" result="shape"/>
</filter>
</defs>
</svg>
